<mxfile host="app.diagrams.net" modified="2024-03-01T09:21:59.371Z" agent="Mozilla/5.0 (Windows NT 10.0; Win64; x64) AppleWebKit/537.36 (KHTML, like Gecko) Chrome/122.0.0.0 Safari/537.36" etag="zPuSXSnBBBjCj2pVGXS7" version="24.0.0" type="device">
  <diagram id="fIOdpwsopXi1blNAEbI_" name="Задание">
    <mxGraphModel dx="1760" dy="868" grid="1" gridSize="10" guides="1" tooltips="1" connect="1" arrows="1" fold="1" page="1" pageScale="1" pageWidth="827" pageHeight="1169" math="0" shadow="0">
      <root>
        <mxCell id="0" />
        <mxCell id="1" parent="0" />
        <mxCell id="B7u1j1xh1--mXBaBmXGf-6" style="edgeStyle=orthogonalEdgeStyle;rounded=0;orthogonalLoop=1;jettySize=auto;html=1;exitX=0.5;exitY=1;exitDx=0;exitDy=0;entryX=0.5;entryY=0;entryDx=0;entryDy=0;" parent="1" source="mm_WDNzDdzkokGjDr3H1-2" target="B7u1j1xh1--mXBaBmXGf-4" edge="1">
          <mxGeometry relative="1" as="geometry" />
        </mxCell>
        <mxCell id="mm_WDNzDdzkokGjDr3H1-2" value="&lt;span style=&quot;font-size: 18px;&quot;&gt;start&lt;br&gt;&lt;/span&gt;" style="ellipse;whiteSpace=wrap;html=1;" parent="1" vertex="1">
          <mxGeometry x="350" y="30" width="100" height="40" as="geometry" />
        </mxCell>
        <mxCell id="mm_WDNzDdzkokGjDr3H1-3" value="&lt;font style=&quot;font-size: 18px;&quot;&gt;finish&lt;/font&gt;" style="ellipse;whiteSpace=wrap;html=1;" parent="1" vertex="1">
          <mxGeometry x="349.99" y="1110" width="100" height="40" as="geometry" />
        </mxCell>
        <mxCell id="mm_WDNzDdzkokGjDr3H1-6" style="edgeStyle=orthogonalEdgeStyle;rounded=0;orthogonalLoop=1;jettySize=auto;html=1;entryX=0.5;entryY=0;entryDx=0;entryDy=0;" parent="1" source="mm_WDNzDdzkokGjDr3H1-7" target="mm_WDNzDdzkokGjDr3H1-3" edge="1">
          <mxGeometry relative="1" as="geometry" />
        </mxCell>
        <mxCell id="mm_WDNzDdzkokGjDr3H1-7" value="&lt;font style=&quot;font-size: 18px;&quot;&gt;print (endArray)&lt;br&gt;&lt;/font&gt;" style="shape=document;whiteSpace=wrap;html=1;boundedLbl=1;" parent="1" vertex="1">
          <mxGeometry x="294.99" y="990" width="210" height="80" as="geometry" />
        </mxCell>
        <mxCell id="mm_WDNzDdzkokGjDr3H1-8" style="edgeStyle=orthogonalEdgeStyle;rounded=0;orthogonalLoop=1;jettySize=auto;html=1;exitX=0.5;exitY=1;exitDx=0;exitDy=0;entryX=0.5;entryY=0;entryDx=0;entryDy=0;" parent="1" edge="1">
          <mxGeometry relative="1" as="geometry">
            <mxPoint x="420" y="860" as="sourcePoint" />
          </mxGeometry>
        </mxCell>
        <mxCell id="mm_WDNzDdzkokGjDr3H1-11" style="edgeStyle=orthogonalEdgeStyle;rounded=0;orthogonalLoop=1;jettySize=auto;html=1;exitX=0.5;exitY=1;exitDx=0;exitDy=0;entryX=0.5;entryY=0;entryDx=0;entryDy=0;" parent="1" edge="1">
          <mxGeometry relative="1" as="geometry">
            <mxPoint x="420" y="980" as="sourcePoint" />
          </mxGeometry>
        </mxCell>
        <mxCell id="mm_WDNzDdzkokGjDr3H1-14" style="edgeStyle=orthogonalEdgeStyle;rounded=0;orthogonalLoop=1;jettySize=auto;html=1;exitX=0.5;exitY=1;exitDx=0;exitDy=0;" parent="1" edge="1">
          <mxGeometry relative="1" as="geometry">
            <mxPoint x="420" y="1165" as="sourcePoint" />
          </mxGeometry>
        </mxCell>
        <mxCell id="mm_WDNzDdzkokGjDr3H1-17" style="edgeStyle=orthogonalEdgeStyle;rounded=0;orthogonalLoop=1;jettySize=auto;html=1;exitX=0.5;exitY=1;exitDx=0;exitDy=0;entryX=0.5;entryY=0;entryDx=0;entryDy=0;" parent="1" edge="1">
          <mxGeometry relative="1" as="geometry">
            <mxPoint x="420" y="1050" as="sourcePoint" />
          </mxGeometry>
        </mxCell>
        <mxCell id="mm_WDNzDdzkokGjDr3H1-24" value="&lt;font style=&quot;font-size: 18px;&quot;&gt;&lt;b&gt;No&lt;/b&gt;&lt;/font&gt;" style="text;html=1;strokeColor=none;fillColor=none;align=center;verticalAlign=middle;whiteSpace=wrap;rounded=0;" parent="1" vertex="1">
          <mxGeometry x="222.5" y="280" width="60" height="30" as="geometry" />
        </mxCell>
        <mxCell id="mm_WDNzDdzkokGjDr3H1-32" value="&lt;b&gt;&lt;font style=&quot;font-size: 18px;&quot;&gt;Yes&lt;/font&gt;&lt;/b&gt;" style="text;html=1;strokeColor=none;fillColor=none;align=center;verticalAlign=middle;whiteSpace=wrap;rounded=0;" parent="1" vertex="1">
          <mxGeometry x="400" y="360" width="60" height="30" as="geometry" />
        </mxCell>
        <mxCell id="B7u1j1xh1--mXBaBmXGf-9" style="edgeStyle=orthogonalEdgeStyle;rounded=0;orthogonalLoop=1;jettySize=auto;html=1;exitX=0.5;exitY=1;exitDx=0;exitDy=0;entryX=0.5;entryY=0;entryDx=0;entryDy=0;" parent="1" source="B7u1j1xh1--mXBaBmXGf-4" target="B7u1j1xh1--mXBaBmXGf-7" edge="1">
          <mxGeometry relative="1" as="geometry" />
        </mxCell>
        <mxCell id="B7u1j1xh1--mXBaBmXGf-4" value="&lt;font style=&quot;font-size: 18px;&quot;&gt;&lt;font face=&quot;Helvetica&quot;&gt;myArray = [&lt;span style=&quot;white-space: pre;&quot;&gt;&quot;Hello&quot;, &quot;2&quot;, &quot;world&quot;, &quot;:-)&quot;&lt;/span&gt;]&lt;br&gt;count = 0&lt;/font&gt;&lt;br&gt;&lt;/font&gt;" style="rounded=0;whiteSpace=wrap;html=1;" parent="1" vertex="1">
          <mxGeometry x="246.25" y="100" width="307.5" height="70" as="geometry" />
        </mxCell>
        <mxCell id="B7u1j1xh1--mXBaBmXGf-10" style="edgeStyle=orthogonalEdgeStyle;rounded=0;orthogonalLoop=1;jettySize=auto;html=1;exitX=0.5;exitY=1;exitDx=0;exitDy=0;entryX=0.5;entryY=0;entryDx=0;entryDy=0;" parent="1" source="B7u1j1xh1--mXBaBmXGf-7" target="B7u1j1xh1--mXBaBmXGf-8" edge="1">
          <mxGeometry relative="1" as="geometry" />
        </mxCell>
        <mxCell id="B7u1j1xh1--mXBaBmXGf-20" style="edgeStyle=orthogonalEdgeStyle;rounded=0;orthogonalLoop=1;jettySize=auto;html=1;exitX=1;exitY=0.5;exitDx=0;exitDy=0;entryX=0.5;entryY=0;entryDx=0;entryDy=0;" parent="1" source="B7u1j1xh1--mXBaBmXGf-7" target="B7u1j1xh1--mXBaBmXGf-19" edge="1">
          <mxGeometry relative="1" as="geometry">
            <Array as="points">
              <mxPoint x="600" y="225" />
              <mxPoint x="600" y="520" />
              <mxPoint x="400" y="520" />
            </Array>
          </mxGeometry>
        </mxCell>
        <mxCell id="B7u1j1xh1--mXBaBmXGf-7" value="&lt;font style=&quot;font-size: 18px;&quot;&gt;string i in myArray&amp;nbsp;&lt;/font&gt;" style="shape=hexagon;perimeter=hexagonPerimeter2;whiteSpace=wrap;html=1;fixedSize=1;" parent="1" vertex="1">
          <mxGeometry x="275" y="200" width="250" height="50" as="geometry" />
        </mxCell>
        <mxCell id="B7u1j1xh1--mXBaBmXGf-13" style="edgeStyle=orthogonalEdgeStyle;rounded=0;orthogonalLoop=1;jettySize=auto;html=1;exitX=0.5;exitY=1;exitDx=0;exitDy=0;entryX=0.5;entryY=0;entryDx=0;entryDy=0;" parent="1" source="B7u1j1xh1--mXBaBmXGf-8" target="B7u1j1xh1--mXBaBmXGf-11" edge="1">
          <mxGeometry relative="1" as="geometry" />
        </mxCell>
        <mxCell id="B7u1j1xh1--mXBaBmXGf-18" style="edgeStyle=orthogonalEdgeStyle;rounded=0;orthogonalLoop=1;jettySize=auto;html=1;exitX=0;exitY=0.5;exitDx=0;exitDy=0;" parent="1" source="B7u1j1xh1--mXBaBmXGf-8" edge="1">
          <mxGeometry relative="1" as="geometry">
            <mxPoint x="200" y="315.1052631578948" as="targetPoint" />
          </mxGeometry>
        </mxCell>
        <mxCell id="B7u1j1xh1--mXBaBmXGf-8" value="&lt;p style=&quot;font-size: 18px; line-height: 19px; white-space: pre;&quot;&gt;&lt;span style=&quot;background-color: rgb(255, 255, 255);&quot;&gt;&lt;font face=&quot;Helvetica&quot;&gt;i.Length &amp;lt;= &lt;span style=&quot;font-size: 18px;&quot;&gt;3&lt;/span&gt;&lt;/font&gt;&lt;/span&gt;&lt;/p&gt;" style="rhombus;whiteSpace=wrap;html=1;" parent="1" vertex="1">
          <mxGeometry x="275" y="270" width="250" height="90" as="geometry" />
        </mxCell>
        <mxCell id="B7u1j1xh1--mXBaBmXGf-17" style="edgeStyle=orthogonalEdgeStyle;rounded=0;orthogonalLoop=1;jettySize=auto;html=1;exitX=0.5;exitY=1;exitDx=0;exitDy=0;entryX=0;entryY=0.5;entryDx=0;entryDy=0;" parent="1" source="B7u1j1xh1--mXBaBmXGf-11" target="B7u1j1xh1--mXBaBmXGf-7" edge="1">
          <mxGeometry relative="1" as="geometry">
            <Array as="points">
              <mxPoint x="400" y="470" />
              <mxPoint x="200" y="470" />
              <mxPoint x="200" y="225" />
            </Array>
          </mxGeometry>
        </mxCell>
        <mxCell id="B7u1j1xh1--mXBaBmXGf-11" value="&lt;font style=&quot;font-size: 18px;&quot;&gt;&lt;font face=&quot;Helvetica&quot;&gt;count ++&lt;/font&gt;&lt;br&gt;&lt;/font&gt;" style="rounded=0;whiteSpace=wrap;html=1;" parent="1" vertex="1">
          <mxGeometry x="318.12" y="390" width="163.75" height="60" as="geometry" />
        </mxCell>
        <mxCell id="B7u1j1xh1--mXBaBmXGf-29" style="edgeStyle=orthogonalEdgeStyle;rounded=0;orthogonalLoop=1;jettySize=auto;html=1;exitX=0.5;exitY=1;exitDx=0;exitDy=0;entryX=0.5;entryY=0;entryDx=0;entryDy=0;" parent="1" source="B7u1j1xh1--mXBaBmXGf-19" target="B7u1j1xh1--mXBaBmXGf-24" edge="1">
          <mxGeometry relative="1" as="geometry" />
        </mxCell>
        <mxCell id="B7u1j1xh1--mXBaBmXGf-19" value="&lt;font style=&quot;font-size: 18px;&quot;&gt;&lt;font face=&quot;Helvetica&quot;&gt;endArray = [0, ...,&amp;nbsp;&lt;/font&gt;count&lt;font face=&quot;Helvetica&quot;&gt;]&lt;br&gt;count = 0&lt;/font&gt;&lt;br&gt;&lt;/font&gt;" style="rounded=0;whiteSpace=wrap;html=1;" parent="1" vertex="1">
          <mxGeometry x="246.25" y="550" width="307.5" height="70" as="geometry" />
        </mxCell>
        <mxCell id="B7u1j1xh1--mXBaBmXGf-21" value="&lt;font style=&quot;font-size: 18px;&quot;&gt;&lt;b&gt;No&lt;/b&gt;&lt;/font&gt;" style="text;html=1;strokeColor=none;fillColor=none;align=center;verticalAlign=middle;whiteSpace=wrap;rounded=0;" parent="1" vertex="1">
          <mxGeometry x="222.5" y="730" width="60" height="30" as="geometry" />
        </mxCell>
        <mxCell id="B7u1j1xh1--mXBaBmXGf-22" value="&lt;b&gt;&lt;font style=&quot;font-size: 18px;&quot;&gt;Yes&lt;/font&gt;&lt;/b&gt;" style="text;html=1;strokeColor=none;fillColor=none;align=center;verticalAlign=middle;whiteSpace=wrap;rounded=0;" parent="1" vertex="1">
          <mxGeometry x="400" y="810" width="60" height="30" as="geometry" />
        </mxCell>
        <mxCell id="B7u1j1xh1--mXBaBmXGf-23" style="edgeStyle=orthogonalEdgeStyle;rounded=0;orthogonalLoop=1;jettySize=auto;html=1;exitX=0.5;exitY=1;exitDx=0;exitDy=0;entryX=0.5;entryY=0;entryDx=0;entryDy=0;" parent="1" source="B7u1j1xh1--mXBaBmXGf-24" target="B7u1j1xh1--mXBaBmXGf-26" edge="1">
          <mxGeometry relative="1" as="geometry" />
        </mxCell>
        <mxCell id="B7u1j1xh1--mXBaBmXGf-33" style="edgeStyle=orthogonalEdgeStyle;rounded=0;orthogonalLoop=1;jettySize=auto;html=1;exitX=1;exitY=0.5;exitDx=0;exitDy=0;entryX=0.5;entryY=0;entryDx=0;entryDy=0;" parent="1" source="B7u1j1xh1--mXBaBmXGf-24" target="mm_WDNzDdzkokGjDr3H1-7" edge="1">
          <mxGeometry relative="1" as="geometry">
            <Array as="points">
              <mxPoint x="600" y="675" />
              <mxPoint x="600" y="960" />
              <mxPoint x="400" y="960" />
            </Array>
          </mxGeometry>
        </mxCell>
        <mxCell id="B7u1j1xh1--mXBaBmXGf-24" value="&lt;font style=&quot;font-size: 18px;&quot;&gt;string i in myArray&amp;nbsp;&lt;/font&gt;" style="shape=hexagon;perimeter=hexagonPerimeter2;whiteSpace=wrap;html=1;fixedSize=1;" parent="1" vertex="1">
          <mxGeometry x="275" y="650" width="250" height="50" as="geometry" />
        </mxCell>
        <mxCell id="B7u1j1xh1--mXBaBmXGf-25" style="edgeStyle=orthogonalEdgeStyle;rounded=0;orthogonalLoop=1;jettySize=auto;html=1;exitX=0.5;exitY=1;exitDx=0;exitDy=0;entryX=0.5;entryY=0;entryDx=0;entryDy=0;" parent="1" source="B7u1j1xh1--mXBaBmXGf-26" target="B7u1j1xh1--mXBaBmXGf-27" edge="1">
          <mxGeometry relative="1" as="geometry" />
        </mxCell>
        <mxCell id="B7u1j1xh1--mXBaBmXGf-32" style="edgeStyle=orthogonalEdgeStyle;rounded=0;orthogonalLoop=1;jettySize=auto;html=1;exitX=0;exitY=0.5;exitDx=0;exitDy=0;" parent="1" source="B7u1j1xh1--mXBaBmXGf-26" edge="1">
          <mxGeometry relative="1" as="geometry">
            <mxPoint x="200" y="765.0769230769231" as="targetPoint" />
          </mxGeometry>
        </mxCell>
        <mxCell id="B7u1j1xh1--mXBaBmXGf-26" value="&lt;p style=&quot;font-size: 18px; line-height: 19px; white-space: pre;&quot;&gt;&lt;span style=&quot;background-color: rgb(255, 255, 255);&quot;&gt;&lt;font face=&quot;Helvetica&quot;&gt;i.Length &amp;lt;= &lt;span style=&quot;font-size: 18px;&quot;&gt;3&lt;/span&gt;&lt;/font&gt;&lt;/span&gt;&lt;/p&gt;" style="rhombus;whiteSpace=wrap;html=1;" parent="1" vertex="1">
          <mxGeometry x="275" y="720" width="250" height="90" as="geometry" />
        </mxCell>
        <mxCell id="B7u1j1xh1--mXBaBmXGf-31" style="edgeStyle=orthogonalEdgeStyle;rounded=0;orthogonalLoop=1;jettySize=auto;html=1;exitX=0.5;exitY=1;exitDx=0;exitDy=0;entryX=0;entryY=0.5;entryDx=0;entryDy=0;" parent="1" source="B7u1j1xh1--mXBaBmXGf-27" target="B7u1j1xh1--mXBaBmXGf-24" edge="1">
          <mxGeometry relative="1" as="geometry">
            <Array as="points">
              <mxPoint x="400" y="940" />
              <mxPoint x="200" y="940" />
              <mxPoint x="200" y="675" />
            </Array>
          </mxGeometry>
        </mxCell>
        <mxCell id="B7u1j1xh1--mXBaBmXGf-27" value="&lt;div&gt;&lt;font style=&quot;font-size: 18px;&quot;&gt;&lt;font face=&quot;Helvetica&quot;&gt;endArray [&lt;/font&gt;count&lt;font face=&quot;Helvetica&quot;&gt;] = i&lt;/font&gt;&lt;font face=&quot;Helvetica&quot;&gt;&lt;br&gt;&lt;/font&gt;&lt;/font&gt;&lt;/div&gt;&lt;font style=&quot;font-size: 18px;&quot;&gt;&lt;font face=&quot;Helvetica&quot;&gt;count ++&lt;/font&gt;&lt;br&gt;&lt;/font&gt;" style="rounded=0;whiteSpace=wrap;html=1;" parent="1" vertex="1">
          <mxGeometry x="279.06" y="850" width="241.88" height="70" as="geometry" />
        </mxCell>
      </root>
    </mxGraphModel>
  </diagram>
</mxfile>
